<svg xmlns="http://www.w3.org/2000/svg" xmlns:xlink="http://www.w3.org/1999/xlink" style="display:none;">
  <symbol id="magic-wand" viewBox="0 0 24 24">
    <path stroke="#141B34" stroke-linejoin="round" stroke-width="1.5" d="m10.938 11.077-7.527 7.528a1.403 1.403 0 1 0 1.985 1.984l7.527-7.527m-1.985-1.985 1.985 1.985m-1.985-1.985.744-.744m1.24 2.729.745-.744m-1.985-1.985.043-.042a.992.992 0 0 1 1.403 0l.581.58a.992.992 0 0 1 0 1.404l-.042.043m-1.985-1.985 1.985 1.985m4.571-9.151a.29.29 0 0 1 .524 0l.392.84c.173.37.47.666.84.839l.839.392a.29.29 0 0 1 0 .524l-.84.392c-.37.173-.666.47-.839.84l-.392.839a.29.29 0 0 1-.524 0l-.392-.84a1.737 1.737 0 0 0-.84-.839l-.839-.392a.29.29 0 0 1 0-.524l.84-.392c.37-.173.666-.47.839-.84l.392-.839Z"/>
  <path stroke="#141B34" stroke-linejoin="round" stroke-width="1.5" d="M18.238 14.167a.29.29 0 0 1 .524 0l.392.84c.173.37.47.666.84.839l.839.392a.29.29 0 0 1 0 .524l-.84.392c-.37.173-.666.47-.839.84l-.392.839a.29.29 0 0 1-.524 0l-.392-.84a1.737 1.737 0 0 0-.84-.839l-.839-.392a.29.29 0 0 1 0-.524l.84-.392c.37-.173.666-.47.839-.84l.392-.839Zm-11-11a.29.29 0 0 1 .524 0l.392.84c.173.37.47.666.84.839l.839.392a.29.29 0 0 1 0 .524l-.84.392c-.37.173-.666.47-.839.84l-.392.839a.29.29 0 0 1-.524 0l-.392-.84a1.737 1.737 0 0 0-.84-.839l-.839-.392a.29.29 0 0 1 0-.524l.84-.392c.37-.173.666-.47.839-.84l.392-.839Z" opacity=".4"/>
  </symbol>
</svg>
