<svg xmlns="http://www.w3.org/2000/svg" width="117" height="44" fill="none" viewBox="0 0 117 44">
  <path fill="#fff" d="M11.87 10.79v14.214c0 10.79-3.647 14.212-11.87 16.22 2.12 1.49 4.688 2.681 7.44 2.681 9.192 0 13.395-6.028 13.395-15.963V0c-4.798.892-8.966 5.73-8.966 10.79ZM60.053 0H49.747L34.604 41.3h8.966l11.35-31.142c.445 1.19 11.31 31.142 11.31 31.142h8.93L60.053 0Z"/>
  <path fill="#B29A5E" d="M53.207 25.3c.744 4.055 4.8 7.07 9.078 7.07h9.637L69.32 25.3H53.207Z"/>
  <path fill="#fff" d="M104.144 0H89.298v41.3c4.8-.857 8.409-5.06 8.409-9.154V25.45h6.4c7.032 0 12.726-5.693 12.726-12.726C116.87 5.692 111.177 0 104.144 0Zm-.446 18.678h-5.953V6.808h5.953c3.311 0 5.395 2.642 5.395 5.953 0 3.312-2.158 5.917-5.395 5.917Z"/>
</svg>
